# xmcd
#
# Track frame offsets: 
#        150
#        5221
#        22803
#        35560
#        46354
#        64242
#        78819
#        89469
#        117758
#        139975
#        149872
#        167895
#        175486
#
# Disc length: 2612 seconds
#
# Revision: 0
# Processed by: cddbd v1.5.2PL0 Copyright (c) Steve Scherf et al.
# Submitted via: ExactAudioCopy v0.99pb4
#
DISCID=b90a320d
DTITLE=Svet and Friends - For You My Love
DYEAR=2009
DGENRE=Blues
TTITLE0=Svet's Train
TTITLE1=From Sea to Sea
TTITLE2=Me and You (Sunrise on Your Pillow)
TTITLE3=True Love with My Baby
TTITLE4=Pain to Feel Love
TTITLE5=In the Evening
TTITLE6=Svet Plays Hooray Hooray
TTITLE7=I'm in Love
TTITLE8=No Time 4D Blues
TTITLE9=Bonne Nuit
TTITLE10=Fantasy
TTITLE11=My Love's in Vain
TTITLE12=Svet Plays Skip James
EXTD=
EXTT0=
EXTT1=
EXTT2=
EXTT3=
EXTT4=
EXTT5=
EXTT6=
EXTT7=
EXTT8=
EXTT9=
EXTT10=
EXTT11=
EXTT12=
PLAYORDER=
